<svg aria-hidden="true" style="position:absolute;width:0;height:0;overflow:hidden" xmlns="http://www.w3.org/2000/svg">
  <defs>
    <symbol id="icon-1-image" viewBox="0 0 32 32">
      <path d="M26.162 21.043c-.782 0-1.525.306-2.085.86-.56.56-.873 1.29-.873 2.072s.306 1.512.873 2.072c.567.554 1.303.86 2.085.86 1.603 0 2.906-1.316 2.906-2.932s-1.303-2.932-2.906-2.932zm0 4.562c-.899 0-1.655-.743-1.655-1.629s.756-1.629 1.655-1.629c.886 0 1.603.73 1.603 1.629s-.717 1.629-1.603 1.629zm.756-14.329a.632.632 0 0 0-.437-.169h-3.343a.654.654 0 0 0-.652.652v5.343c0 .358.293.652.652.652h5.304a.654.654 0 0 0 .652-.652v-3.577a.652.652 0 0 0-.215-.482l-1.961-1.766zm.873 5.174H23.79v-4.046h2.437l1.564 1.407v2.639zM10.25 21.043c-.782 0-1.525.306-2.085.86-.56.56-.873 1.29-.873 2.072s.306 1.512.873 2.072c.567.554 1.303.86 2.085.86 1.603 0 2.906-1.316 2.906-2.932s-1.303-2.932-2.906-2.932zm0 4.562c-.899 0-1.655-.743-1.655-1.629s.756-1.629 1.655-1.629c.886 0 1.603.73 1.603 1.629s-.717 1.629-1.603 1.629zm-4.347-3.76h-1.31v-1.733c0-.358-.293-.652-.652-.652s-.652.293-.652.652v2.385c0 .358.293.652.652.652h1.961c.358 0 .652-.293.652-.652s-.293-.652-.652-.652zm3.304-3.551a.654.654 0 0 0-.652-.652H.651c-.358 0-.652.293-.652.652s.293.652.652.652h7.904a.65.65 0 0 0 .652-.652zm-7.233-2.353 7.904.046a.658.658 0 0 0 .658-.645.645.645 0 0 0-.645-.658l-7.904-.046H1.98a.649.649 0 0 0-.652.645.645.645 0 0 0 .645.658zm1.33-2.958h7.904c.358 0 .652-.293.652-.652s-.293-.652-.652-.652H3.304c-.358 0-.652.293-.652.652s.293.652.652.652zm28.455-.88-4.665-3.864a.64.64 0 0 0-.417-.15h-5.486V5.743a.654.654 0 0 0-.652-.652H3.943a.654.654 0 0 0-.652.652v4.77c0 .358.293.652.652.652s.652-.293.652-.652V6.395h15.299v15.449h-5.343c-.358 0-.652.293-.652.652s.293.652.652.652h7.956c.358 0 .652-.293.652-.652s-.293-.652-.652-.652h-1.31V9.392h5.252l4.248 3.519-.046 8.92h-.678c-.358 0-.652.293-.652.652s.293.652.652.652h1.323a.649.649 0 0 0 .652-.645L32 12.612a.687.687 0 0 0-.241-.508z"/>
    </symbol>
    <symbol id="icon-2-image" viewBox="0 0 32 32">
      <path d="M26.948 12.168v-1.23c0-2.944-1.042-5.681-2.931-7.711C22.081 1.143 19.419 0 16.514 0h-1.015c-2.904 0-5.566 1.143-7.503 3.227-1.889 2.03-2.931 4.766-2.931 7.711v1.23a4.415 4.415 0 0 0-4.114 4.397v1.923a4.409 4.409 0 0 0 4.403 4.403h2.481a.81.81 0 0 0 .807-.807v-9.123a.81.81 0 0 0-.807-.807H6.679v-1.217c0-5.318 3.792-9.324 8.813-9.324h1.015c5.029 0 8.813 4.007 8.813 9.324v1.217h-1.156a.81.81 0 0 0-.807.807v9.116a.81.81 0 0 0 .807.807h1.129c-.329 4.208-3.227 5.183-4.571 5.405a2.837 2.837 0 0 0-2.696-1.956h-2.017c-1.56 0-2.83 1.271-2.83 2.83S14.45 32 16.009 32h2.024c1.304 0 2.4-.887 2.729-2.084a7.623 7.623 0 0 0 2.736-.934c1.459-.854 3.187-2.595 3.415-6.104a4.408 4.408 0 0 0 4.134-4.397v-1.923a4.392 4.392 0 0 0-4.101-4.39zM7.042 21.271H5.368c-1.54 0-2.79-1.25-2.79-2.79v-1.923c0-1.539 1.25-2.79 2.79-2.79h1.674v7.502zm10.992 9.116H16.01a1.217 1.217 0 0 1 0-2.434h2.024a1.217 1.217 0 0 1 0 2.434zm11.408-11.906c0 1.539-1.25 2.79-2.79 2.79h-1.674v-7.503h1.674c1.539 0 2.79 1.25 2.79 2.79v1.923z"/>
    </symbol>
    <symbol id="icon-3-image" viewBox="0 0 32 32">
      <path d="M28.784 27.734 26.943 6.981a.789.789 0 0 0-.795-.722h-3.882C22.259 2.808 19.451-.001 16-.001s-6.26 2.809-6.266 6.26H5.852a.798.798 0 0 0-.795.722L3.216 27.734v.073C3.216 30.119 5.342 32 7.952 32h16.096c2.61 0 4.736-1.881 4.736-4.193v-.073zM16 1.59a4.682 4.682 0 0 1 4.676 4.67h-9.353a4.683 4.683 0 0 1 4.676-4.67zm8.048 28.814H7.952c-1.722 0-3.126-1.146-3.146-2.57L6.581 7.85h3.153v2.789c0 .437.358.795.795.795s.795-.358.795-.795V7.85h9.353v2.789c0 .437.358.795.795.795s.795-.358.795-.795V7.85h3.153l1.775 19.991c-.02 1.418-1.424 2.563-3.146 2.563z"/>
      <path d="m19.306 16.547-4.69 4.69-1.914-1.914a.796.796 0 1 0-1.126 1.126l2.477 2.477a.799.799 0 0 0 1.126 0l5.253-5.253a.796.796 0 0 0 0-1.126.807.807 0 0 0-1.126 0z"/>
    </symbol>
    <symbol id="icon-4-image" viewBox="0 0 32 32">
      <path d="M30.717 7.544a.838.838 0 0 0-.081-.358.78.78 0 0 0-.547-.432L16.331.081a.816.816 0 0 0-.709 0L1.729 6.815a.811.811 0 0 0-.459.702v16.932c0 .311.176.594.459.729l13.893 6.734c.007 0 .007 0 .014.007.02.007.04.014.061.027.007 0 .014.007.027.007l.061.02c.007 0 .014.007.02.007.02.007.047.007.068.014h.02c.027 0 .061.007.088.007s.061 0 .088-.007h.02c.02 0 .047-.007.068-.014.007 0 .014-.007.02-.007l.061-.02c.007 0 .014-.007.027-.007.02-.007.041-.014.061-.027.007 0 .007 0 .014-.007l13.933-6.754a.816.816 0 0 0 .459-.729V7.565c-.014-.007-.014-.013-.014-.02zM15.973 1.709l12.049 5.842-4.437 2.154-12.049-5.842 4.437-2.155zm0 11.684L3.924 7.551l5.754-2.789 12.049 5.842-5.754 2.789zM2.891 8.854l12.272 5.95v15.082l-12.272-5.95V8.855zm13.893 21.032V14.804l5.761-2.796v3.944c0 .446.365.811.81.811s.811-.365.811-.81v-4.734l4.93-2.391v15.081l-12.312 5.977z"/>
    </symbol>
    <symbol id="icon-arrow-right" viewBox="0 0 39 32">
      <path stroke-linejoin="round" stroke-linecap="round" stroke-width="3.429" d="M36 16.517H1.714M22.172 2.745l13.829 13.769-13.829 13.771"/>
    </symbol>
    <symbol id="icon-1-vegetable" viewBox="0 0 32 32">
      <path fill="#fff" style="fill:var(--color1, #fff)" d="M0 0h32v32H0V0z"/>
      <path fill="#fcd770" style="fill:var(--color2, #fcd770)" d="M31 17.975v1.05c0 1.77-.74 3.45-2.025 4.66l-1.945-.295c.625-1.03.97-2.23.97-3.47v-1.84c0-1.035-.24-2.04-.68-2.94a6.365 6.365 0 0 0-1.315-1.805l.005-.005c.28-.51.815-.83 1.41-.83.345 0 .68.11.96.315a6.418 6.418 0 0 1 2.62 5.16z"/>
      <path fill="#fcd770" style="fill:var(--color2, #fcd770)" d="M25.42 12.82c.21.16.41.33.585.515.545.525.99 1.135 1.315 1.805.44.9.68 1.905.68 2.94v1.84c0 1.24-.345 2.44-.97 3.47l-4.69-.72v-.005c-.225-.865-.34-1.75-.34-2.65v-2.03c0-.695.07-1.39.205-2.07.245.055.51.085.795.085 1.105 0 2-.45 2-1 0-.355-.37-.665-.925-.84l.15-1.64a1.572 1.572 0 0 1 1.195.3zM19.385 12.715c.265.15.48.37.625.645v.005A6.541 6.541 0 0 0 18 18.08v1.84c0 .735.125 1.455.36 2.135l-2.805-.43a6.387 6.387 0 0 1-.555-2.6v-1.05a6.377 6.377 0 0 1 .165-1.43c.34-1.475 1.2-2.8 2.455-3.73a1.623 1.623 0 0 1 1.765-.1z"/>
      <path fill="#fcd770" style="fill:var(--color2, #fcd770)" d="m21.775 12.51.15 1.65c-.555.175-.925.485-.925.84 0 .41.495.76 1.205.915-.135.68-.205 1.375-.205 2.07v2.03c0 .9.115 1.785.34 2.65l-3.98-.61c-.235-.68-.36-1.4-.36-2.135v-1.84c0-1.79.735-3.49 2.01-4.715v-.005c.2-.195.41-.375.635-.54.28-.205.62-.32.97-.32.055 0 .105.005.155.01h.005z"/>
      <path fill="#cf9e76" style="fill:var(--color3, #cf9e76)" d="M25 15c0 .55-.895 1-2 1-.285 0-.55-.03-.795-.085C21.495 15.76 21 15.41 21 15c0-.355.37-.665.925-.84l-.15-1.65-.27-2.945c-.005-.045-.005-.085-.005-.13C21.5 8.64 22.14 8 22.935 8h.13A1.432 1.432 0 0 1 24.5 9.435c0 .045 0 .085-.005.13l-.27 2.955-.15 1.64c.555.175.925.485.925.84z"/>
      <path fill="#8cc152" style="fill:var(--color4, #8cc152)" d="M11.955 3.065c.175-.04.36-.065.545-.065.815 0 1.545.39 2 1l-.01.05a2.494 2.494 0 0 0-2.79 1.47c-.065-.005-.13-.02-.2-.02-1.255 0-2.285.93-2.465 2.135A3.505 3.505 0 0 0 6.5 11c0 1.365.78 2.54 1.92 3.12A2.47 2.47 0 0 0 8 15.5c0 .89.47 1.665 1.17 2.11-.105.275-.17.575-.17.89 0 1.38 1.12 2.515 2.5 2.515a4.923 4.923 0 0 0-.38-.015H11c-.975 0-1.885.28-2.655.765L7 18a2.5 2.5 0 0 1-2.5-2.5c0-.315.065-.615.17-.89A2.498 2.498 0 0 1 3.5 12.5c0-.51.155-.985.42-1.38A3.495 3.495 0 0 1 2 8c0-1.6 1.075-2.945 2.535-3.365A2.498 2.498 0 0 1 7 2.5c.07 0 .135.015.2.02a2.494 2.494 0 0 1 4.755.545z"/>
      <path fill="#b4dd7f" style="fill:var(--color5, #b4dd7f)" d="M18.78 10.25a2.485 2.485 0 0 1 .625 2.43l-.02.035a1.623 1.623 0 0 0-1.765.1 6.446 6.446 0 0 0-2.62 5.16v1.05c0 .91.195 1.79.555 2.6l-3.675-.565a5.225 5.225 0 0 0-.38-.045c-1.38 0-2.5-1.135-2.5-2.515 0-.315.065-.615.17-.89A2.498 2.498 0 0 1 8 15.5c0-.51.155-.985.42-1.38A3.495 3.495 0 0 1 6.5 11c0-1.6 1.075-2.945 2.535-3.365A2.498 2.498 0 0 1 11.5 5.5c.07 0 .135.015.2.02a2.494 2.494 0 0 1 2.79-1.47c1.005.2 1.79 1 1.965 2.015.175-.04.36-.065.545-.065a2.5 2.5 0 0 1 2.5 2.5c0 .68-.275 1.3-.72 1.75zM3.4 25h2.7a5.024 5.024 0 0 0 0 2H2a.978.978 0 0 1-.705-.295A.978.978 0 0 1 1 26c0-.55.45-1 1-1h1.4zM3.595 23.02l2.975.665c-.215.41-.375.85-.47 1.315H3.4a.903.903 0 0 1-.9-.9v-.2a.903.903 0 0 1 1.095-.88z"/>
      <path fill="#b4dd7f" style="fill:var(--color5, #b4dd7f)" d="m6.57 28.315-2.975.665A.903.903 0 0 1 2.5 28.1v-.2c0-.495.405-.9.9-.9h2.7c.095.465.255.905.47 1.315z"/>
      <path fill="#ff826e" style="fill:var(--color6, #ff826e)" d="M30.44 24.48c-.355-.41-.85-.7-1.415-.785l-.05-.01-1.945-.295-4.69-.72v-.005L11.88 21.06a5.225 5.225 0 0 0-.76-.06H11a5.004 5.004 0 0 0-4.9 6 5.018 5.018 0 0 0 1.365 2.535A4.984 4.984 0 0 0 11 31h.12c.25 0 .505-.02.76-.06l17.145-2.635a2.333 2.333 0 0 0 1.415-3.825z"/>
      <path fill="#1a1a1a" style="fill:var(--color7, #1a1a1a)" d="M31.5 17.975a6.947 6.947 0 0 0-2.823-5.561 2.106 2.106 0 0 0-2.738.196c-.073-.06-.138-.127-.213-.184a2.083 2.083 0 0 0-.953-.39l.221-2.425a1.937 1.937 0 0 0-1.928-2.11h-.13a1.937 1.937 0 0 0-1.927 2.111l.221 2.435c-.317.06-.623.182-.882.375-.09.067-.169.144-.255.214a2.134 2.134 0 0 0-.14-.13c.028-.166.048-.335.048-.505 0-.635-.198-1.243-.565-1.75a2.972 2.972 0 0 0 .565-1.75c0-1.712-1.449-3.1-3.174-2.994a2.987 2.987 0 0 0-1.99-1.881 2.958 2.958 0 0 0-2.511-1.119 2.996 2.996 0 0 0-5.424-.504 3.015 3.015 0 0 0-2.797 2.252 4.018 4.018 0 0 0-2.604 3.747 3.98 3.98 0 0 0 1.749 3.304 2.984 2.984 0 0 0 .838 3.499 2.868 2.868 0 0 0-.087.697c0 1.532 1.155 2.8 2.64 2.979l1.106 3.097a5.505 5.505 0 0 0-1.42 1.54l-2.62-.582a1.403 1.403 0 0 0-1.706 1.367v.198c0 .14.027.273.066.401h-.066c-.827 0-1.5.673-1.5 1.5s.673 1.5 1.5 1.5h.066a1.403 1.403 0 0 0-.066.401v.198a1.403 1.403 0 0 0 1.705 1.367l2.621-.582a5.495 5.495 0 0 0 4.674 2.616h.118c.278 0 .559-.021.836-.064L29.101 28.8a2.816 2.816 0 0 0 2.401-2.798 2.808 2.808 0 0 0-1.621-2.551 6.913 6.913 0 0 0 1.621-4.424v-1.051zm-6.383-4.756c1.492 1.141 2.383 2.959 2.383 4.863v1.837a6.169 6.169 0 0 1-.737 2.924l-4.009-.617a9.978 9.978 0 0 1-.254-2.211v-2.03c0-.504.051-1.007.127-1.506.123.01.244.021.373.021 1.426 0 2.5-.645 2.5-1.5 0-.472-.326-.891-.892-1.166l.074-.809c.156.031.306.094.435.194zM22.935 8.5h.13a.936.936 0 0 1 .931 1.02l-.454 4.994.382.122c.438.14.576.324.576.364 0 .124-.532.5-1.5.5s-1.5-.376-1.5-.5c0-.04.138-.224.576-.365l.382-.122-.454-4.993a.936.936 0 0 1 .931-1.02zm-1.615 4.542.072.792c-.566.275-.892.694-.892 1.166 0 .551.45 1.011 1.148 1.271a11.09 11.09 0 0 0-.148 1.714v2.03c0 .687.066 1.373.194 2.047l-2.948-.453a6.041 6.041 0 0 1-.246-1.691v-1.837a6.09 6.09 0 0 1 2.445-4.859c.112-.083.24-.144.375-.18zm-5.403 8.132a5.807 5.807 0 0 1-.417-2.148v-1.051c0-1.861.904-3.639 2.417-4.757.19-.14.426-.217.664-.217.302 0 .58.121.784.325a7.083 7.083 0 0 0-1.865 4.757v1.837c0 .515.062 1.025.173 1.525l-1.756-.27zm.046-15.024.091.515.51-.114c.155-.034.297-.051.435-.051 1.103 0 2 .897 2 2 0 .525-.204 1.022-.574 1.399l-.344.351.344.351c.37.377.574.874.574 1.399 0 .015-.003.03-.003.046A2.129 2.129 0 0 0 18.58 12c-.45 0-.897.147-1.258.413a6.973 6.973 0 0 0-2.113 2.54 32.833 32.833 0 0 0-.593-1.692c.462-2.443 2.178-3.857 2.195-3.872L16.498 9l-.312-.39c-.07.055-1.422 1.16-2.182 3.152-1.041-2.389-2.023-3.934-2.085-4.033l-.842.541c.014.02.776 1.22 1.664 3.129-1.496-.563-3.195-.408-3.293-.398l.1.995c.752-.076 2.882-.039 3.877.976.351.861.696 1.806 1.001 2.818-1.52-.78-3.333-.792-3.427-.792v1c.024 0 2.25.015 3.567 1.062a6.752 6.752 0 0 0-.067.912v1.051c0 .675.104 1.336.297 1.976l-2.844-.437a5.702 5.702 0 0 0-.453-.05c-1.103 0-2-.904-2-2.014 0-.233.046-.472.138-.712l.146-.382-.346-.219a1.992 1.992 0 0 1-.603-2.792l.312-.468-.501-.254a2.988 2.988 0 0 1-1.644-2.674c0-1.331.894-2.515 2.175-2.882l.31-.089.047-.319a2.004 2.004 0 0 1 1.968-1.71c.018 0 .036.004.054.006.035.005.071.01.106.012l.359.029.141-.331a1.997 1.997 0 0 1 3.803.434zM7.353 17.5H7c-1.103 0-2-.897-2-2 0-.234.046-.473.138-.711l.146-.382-.346-.219a1.991 1.991 0 0 1-.604-2.792l.312-.468-.501-.254A2.988 2.988 0 0 1 2.501 8c0-1.331.894-2.515 2.174-2.882l.311-.089.046-.32A2.006 2.006 0 0 1 7.001 3c.019 0 .038.004.056.006.034.005.068.009.103.012l.36.03.142-.333a1.997 1.997 0 0 1 3.803.435l.091.514.51-.114c.155-.034.298-.051.436-.051.23 0 .449.05.658.123A2.996 2.996 0 0 0 11.403 5a3.015 3.015 0 0 0-2.797 2.252 4.017 4.017 0 0 0-2.604 3.746 3.98 3.98 0 0 0 1.749 3.304 2.98 2.98 0 0 0-.249 1.196c0 .9.4 1.736 1.087 2.303a2.868 2.868 0 0 0-.087.697c0 .879.378 1.668.976 2.219a5.392 5.392 0 0 0-.856.33l-1.267-3.549zM3 24.099v-.198c0-.251.243-.444.489-.391l2.38.529a5.21 5.21 0 0 0-.154.462H3.402a.402.402 0 0 1-.401-.401zM1.5 26a.5.5 0 0 1 .5-.5h3.525c-.015.165-.025.331-.025.5s.01.335.025.5H2a.5.5 0 0 1-.5-.5zm1.987 2.49A.411.411 0 0 1 3 28.099v-.198c0-.221.18-.401.401-.401h2.312c.044.157.097.311.154.461l-2.38.529zM30.5 26c0 .911-.653 1.671-1.552 1.81l-17.145 2.638a4.504 4.504 0 0 1-.685.052H11c-2.481 0-4.5-2.019-4.5-4.5s2.019-4.5 4.5-4.5h.118c.227 0 .458.018.684.052l17.145 2.638c.9.139 1.553.9 1.553 1.81zm0-6.975a5.923 5.923 0 0 1-1.705 4.129l-.994-.153c.457-.959.699-2.01.699-3.083v-1.837a7.172 7.172 0 0 0-1.84-4.776 1.107 1.107 0 0 1 1.422-.087 5.945 5.945 0 0 1 2.417 4.757v1.051z"/>
      <path fill="#1a1a1a" style="fill:var(--color7, #1a1a1a)" d="M10.5 23.5h1v5h-1v-5zM14.5 23.5h1v5h-1v-5zM18.5 23.5h1v5h-1v-5zM22.5 24.5h1v3h-1v-3zM26.5 25h1v2h-1v-2z"/>
    </symbol>
    <symbol id="icon-2-fruits" viewBox="0 0 32 32">
      <path fill="#ffcf5d" style="fill:var(--color8, #ffcf5d)" d="M29.757 5.155a2.435 2.435 0 0 0-.806-1.185.926.926 0 0 1-.346-.727V.938a.469.469 0 0 0-.469-.469h-.937a.469.469 0 0 0-.469.469v1.955a.93.93 0 0 1-.496.827 2.434 2.434 0 0 0-1.073 1.124c-1.048 2.195-2.907 6.738-6.727 10.551-3.812 3.82-8.356 5.679-10.551 6.727-2.01.96-1.833 3.913.311 4.596 1.252.399 2.643.59 4.099.564 4.249-.077 8.717-2.459 12.143-5.885s5.808-7.894 5.885-12.143c.026-1.456-.165-2.847-.564-4.099z"/>
      <path fill="#ffb545" style="fill:var(--color9, #ffb545)" d="M27.786 5.439c.085.067.145.16.185.285.338 1.062.499 2.238.476 3.496-.064 3.517-2.059 7.573-5.336 10.851s-7.334 5.273-10.851 5.336a1.874 1.874 0 0 0-1.838 1.785c.607.071 1.234.102 1.872.09 4.249-.077 8.717-2.459 12.143-5.885s5.808-7.894 5.885-12.143c.026-1.456-.165-2.847-.564-4.099a2.441 2.441 0 0 0-.806-1.185.926.926 0 0 1-.346-.727V.938a.469.469 0 0 0-.469-.469H27.2a.469.469 0 0 0-.469.469v2.305c0 .863.385 1.664 1.056 2.196z"/>
      <path fill="#28d05b" style="fill:var(--color10, #28d05b)" d="m5.975 14.204-1.577-.998c-.397-.251-.895.123-.758.569l.463 1.503a5.252 5.252 0 0 0 2.027 2.766l1.549 1.019c0-1.825-.071-3.823-1.705-4.858z"/>
      <path fill="#ff5368" style="fill:var(--color11, #ff5368)" d="M10.273 18.382c-.909-.033-1.79.203-2.593.652-.803-.448-1.684-.685-2.593-.652-1.901.081-3.268 1.1-3.997 2.413-.732 1.334-.825 2.961-.242 4.757.892 2.738 3.26 5.19 5.51 5.319.221.015.437.01.647-.012a6.452 6.452 0 0 1 1.347 0c.21.022.426.027.647.012 2.25-.128 4.618-2.581 5.51-5.319.584-1.795.49-3.423-.242-4.757-.729-1.312-2.096-2.332-3.997-2.413z"/>
      <path fill="#d9435b" style="fill:var(--color12, #d9435b)" d="M14.27 20.795a4.666 4.666 0 0 0-1.517-1.64c.068.103.132.208.192.315.732 1.334.825 2.961.242 4.757-.599 1.838-1.864 3.548-3.311 4.512a4.874 4.874 0 0 1-2.703.807H3.482c.894.771 1.897 1.269 2.878 1.325.221.015.437.011.647-.012.448-.048.9-.047 1.348 0 .21.022.426.027.647.012 2.25-.128 4.618-2.581 5.51-5.319.583-1.795.49-3.423-.242-4.757z"/>
      <path fill="#ff983b" style="fill:var(--color13, #ff983b)" d="M27.147 19.281a1.875 1.875 0 0 0-3.646 0 6.25 6.25 0 1 0 3.646 0z"/>
      <path fill="#ff7e40" style="fill:var(--color14, #ff7e40)" d="M29.031 20.229a6.25 6.25 0 0 1-8.739 8.739 6.25 6.25 0 1 0 8.739-8.739z"/>
      <path fill="#28d05b" style="fill:var(--color10, #28d05b)" d="m28.894 19.507-.463-1.503a5.247 5.247 0 0 0-2.027-2.766l-.612-.403a.605.605 0 0 0-.937.505v.666c0 1.253.599 2.37 1.705 3.07l1.577.999c.396.251.895-.123.758-.569zM21.001 7.895a.482.482 0 0 0-.625-.233l-.263.109.201-.201c.181-.182.2-.48.024-.667a.469.469 0 0 0-.673-.01l-.215.215.116-.281a.47.47 0 0 0-.867-.359l-.254.615a.463.463 0 0 0 .032.422.52.52 0 0 1-.065.64.482.482 0 0 0-.024.666.469.469 0 0 0 .673.01l.009-.009a.529.529 0 0 1 .649-.067.467.467 0 0 0 .418.03l.614-.254a.468.468 0 0 0 .248-.625z"/>
      <path fill="#d9435b" style="fill:var(--color12, #d9435b)" d="M19.701 8.184a.937.937 0 0 0-.933.271l-1.538-.48-1.138 1.195-.483 1.802a.936.936 0 0 0-1.164.657.938.938 0 1 0 1.824.05.938.938 0 0 0 1.803-.517.94.94 0 0 0 1.564.403.938.938 0 0 0-.408-1.566.937.937 0 0 0 .474-1.814z"/>
      <path fill="#ff5368" style="fill:var(--color11, #ff5368)" d="M18.375 6.859a.938.938 0 0 0-1.148 1.148.938.938 0 1 0-1.127 1.155.938.938 0 1 0 .641.657.938.938 0 0 0 .906.694h.004c.824-.004 1.249-1.01.658-1.6a.928.928 0 0 0-.416-.242.937.937 0 0 0 .481-1.812z"/>
      <path fill="#28d05b" style="fill:var(--color10, #28d05b)" d="M18.449 1.729a.47.47 0 0 0-.613-.254l-.281.116.215-.215a.469.469 0 0 0-.663-.663l-.215.215.116-.281a.469.469 0 0 0-.867-.358l-.254.615 1.692 1.692.614-.254a.47.47 0 0 0 .254-.613z"/>
      <path fill="#ff5368" style="fill:var(--color11, #ff5368)" d="M13.553 1.396c.976-.976 2.427-.844 3.403.133s1.109 2.427.133 3.403-3.576 1.993-4.552 1.016.04-3.576 1.017-4.552z"/>
      <path fill="#d9435b" style="fill:var(--color12, #d9435b)" d="M16.956 1.529a2.861 2.861 0 0 0-.772-.553c.423.873.322 1.889-.42 2.631s-2.421 1.506-3.613 1.402c.033.377.151.705.386.939.976.976 3.576-.04 4.552-1.016s.844-2.427-.133-3.403z"/>
      <path fill="#5c87bd" style="fill:var(--color15, #5c87bd)" d="M12 9.61a3.125 3.125 0 1 1-6.25 0 3.125 3.125 0 0 1 6.25 0z"/>
      <path fill="#456ea2" style="fill:var(--color16, #456ea2)" d="M10.321 6.839a3.125 3.125 0 0 1-4.216 4.215 3.125 3.125 0 1 0 4.216-4.215z"/>
      <path fill="#1a1a1a" style="fill:var(--color7, #1a1a1a)" d="M29.318 19.9a.966.966 0 0 0-.015-.519l-.462-1.503a5.749 5.749 0 0 0-2.215-3.021l-.611-.403a1.073 1.073 0 0 0-1.662.897v.666c0 .515.092 1.009.265 1.466a2.33 2.33 0 0 0-1.526 1.44 6.774 6.774 0 0 0-3.168 2.315 6.671 6.671 0 0 0-1.342 3.879c-1.33.678-2.66 1.159-3.967 1.436 1.044-2.387 1.066-5.116-.713-7.014a29.702 29.702 0 0 0 2.156-1.476 25.152 25.152 0 0 0 2.681-2.327c3.111-3.113 4.901-6.572 6.444-9.903.37-.799.542-1.333 1.232-1.695.461-.242.747-.718.747-1.243V.939h.936v2.307c0 .431.191.831.523 1.095.305.244.524.567.65.961 1.036 3.263.528 6.706-.933 9.801a.468.468 0 0 0 .846.401h.001c.486-1.03.865-2.07 1.125-3.092.651-2.549.563-5.159-.147-7.395a2.907 2.907 0 0 0-.96-1.411.458.458 0 0 1-.169-.36V.939a.938.938 0 0 0-.936-.938h-.936a.939.939 0 0 0-.936.938v1.956a.465.465 0 0 1-.244.411c-.976.51-1.242 1.257-1.647 2.131-1.227 2.65-3.006 6.385-6.256 9.636-1.404 1.409-3.014 2.661-4.914 3.82-.813-.583-1.802-.921-2.889-.968a5.17 5.17 0 0 0-1.797.254c.874-1.729 2.17-2.924 3.865-3.563.513.515 1.125-.199.703-.622l-.249-.25a.47.47 0 0 0-.479-.113c-1.797.6-3.248 1.767-4.274 3.419-.162-1.229-.605-2.457-1.828-3.233l-1.574-.999a.967.967 0 0 0-1.117.05.962.962 0 0 0-.338 1.054l.462 1.504a5.744 5.744 0 0 0 1.566 2.497c-1.831.011-3.577.926-4.539 2.66-.797 1.456-.893 3.23-.276 5.13a9.702 9.702 0 0 0 2.36 3.829c1.117 1.104 2.382 1.749 3.557 1.816.244.017.489.012.727-.013a5.907 5.907 0 0 1 1.247 0 4.04 4.04 0 0 0 .722.013c1.186-.068 2.457-.718 3.576-1.832a9.642 9.642 0 0 0 1.485-1.92c1.502-.237 3.031-.729 4.559-1.468.424 3.302 3.247 5.861 6.655 5.861 3.7 0 6.71-3.016 6.71-6.723a6.713 6.713 0 0 0-2.681-5.377zM4.544 15.149l-.462-1.504c-.004-.011-.006-.019.011-.032.038-.029-.077-.081 1.622.997 1.16.736 1.42 2.038 1.473 3.587l-.804-.531a4.802 4.802 0 0 1-1.84-2.517zm9.502 10.273c-.811 2.494-3.006 4.88-5.09 5-.189.013-.38.01-.565-.01a6.689 6.689 0 0 0-1.444 0c-.185.02-.375.023-.57.01-.953-.055-2.003-.604-2.958-1.548s-1.709-2.169-2.127-3.451c-.534-1.648-.463-3.166.206-4.387.729-1.315 2.042-2.107 3.599-2.173a4.371 4.371 0 0 1 2.12.475l.195.129c.183.12.435.103.598-.072a4.397 4.397 0 0 1 2.229-.532c2.914.125 5.024 2.811 3.808 6.56zM25.29 15.351c0-.109.119-.174.211-.114.563.371 1.282.771 1.915 1.77a.47.47 0 0 0 .192.332c.137.26.251.533.338.815l.462 1.503c.003.011.006.019-.012.032-.023.018-.037.009-.047.002l-1.575-.999c-1.603-1.017-1.485-2.495-1.485-3.342zm0 15.711c-3.184 0-5.774-2.595-5.774-5.785a5.749 5.749 0 0 1 3.445-5.296c.036.337.145.665.324.962a.467.467 0 1 0 .801-.486 1.406 1.406 0 0 1-.163-1.055c.114-.476.458-.844.897-.999v1.308c0 .257.198.481.454.488a.47.47 0 0 0 .483-.469v-.629c.293.253.495.37.935.649a1.41 1.41 0 0 1-.2.707.47.47 0 0 0 .801.486c.121-.2.21-.417.266-.642l.289.183a.974.974 0 0 0 .825.105 5.774 5.774 0 0 1 2.391 4.687c0 3.19-2.59 5.785-5.774 5.785z"/>
      <path fill="#1a1a1a" style="fill:var(--color7, #1a1a1a)" d="M8.862 13.212a3.596 3.596 0 0 0 0-7.192 3.596 3.596 0 0 0 0 7.192zm0-6.254a2.658 2.658 0 0 1 0 5.316 2.658 2.658 0 0 1 0-5.316z"/>
      <path fill="#1a1a1a" style="fill:var(--color7, #1a1a1a)" d="M7.922 9.322a.467.467 0 0 0 .662 0l.137-.137.137.137a.467.467 0 1 0 .662-.663l-.137-.137.137-.137a.469.469 0 0 0-.662-.663l-.137.137-.137-.137a.468.468 0 1 0-.662.663l.137.137-.137.137a.469.469 0 0 0 0 .663zM17.396 5.267c.782-.783.989-1.873.637-2.866l.138-.057a.469.469 0 0 0-.359-.867l-.226.094-.013-.018.174-.174a.469.469 0 0 0-.662-.663l-.174.175-.018-.013.094-.227a.47.47 0 0 0-.865-.359l-.057.137c-1-.358-2.079-.145-2.861.638-1.093 1.095-2.247 3.984-1.015 5.218 1.239 1.242 4.128.065 5.208-1.017zm-4.651-1.464c.226-.796.676-1.629 1.12-2.074.794-.796 1.949-.657 2.736.133.831.833.887 1.986.133 2.742-.444.445-1.276.895-2.07 1.122-.833.237-1.512.199-1.814-.105s-.341-.982-.104-1.817z"/>
      <path fill="#1a1a1a" style="fill:var(--color7, #1a1a1a)" d="M15.275 3.854a.469.469 0 1 0-.663-.663.469.469 0 0 0 .663.663zM13.951 5.181a.469.469 0 1 0-.663-.663.469.469 0 0 0 .663.663zM13.951 3.854a.469.469 0 1 0-.663-.663.469.469 0 0 0 .663.663zM15.275 5.181a.469.469 0 1 0-.663-.663.469.469 0 0 0 .663.663zM16.599 3.854a.469.469 0 1 0-.663-.663.469.469 0 0 0 .663.663zM15.275 2.528a.469.469 0 1 0-.663-.663.469.469 0 0 0 .663.663zM17.386 6.56a1.43 1.43 0 0 0-.454.435 1.402 1.402 0 0 0-1.626.265 1.405 1.405 0 0 0-.261 1.629 1.408 1.408 0 0 0-.484 1.811 1.409 1.409 0 0 0 .437 2.546 1.402 1.402 0 0 0 1.506-.597c.41.207.918.212 1.351-.048.184-.111.34-.262.456-.439a1.404 1.404 0 0 0 1.887-1.887 1.402 1.402 0 0 0 .514-1.744.468.468 0 0 0-.322-.88l-.276.096.185-.185a.469.469 0 0 0-.662-.663l-.185.185.096-.276a.469.469 0 0 0-.877-.326 1.399 1.399 0 0 0-1.287.079zm1.174 1.33a.458.458 0 0 0-.015.103l-.17.171c-.426.427.196 1.13.699.626.162-.163.338-.197.509-.14.434.146.42.793-.045.902a.593.593 0 0 0-.27 1.011.47.47 0 1 1-.664.663.592.592 0 0 0-1.007.271.47.47 0 0 1-.8.215.593.593 0 0 0-1.008.273.47.47 0 0 1-.568.349c-.394-.095-.496-.631-.139-.854.198-.124.368-.05.437-.039a1.355 1.355 0 0 0 1.443-.622c.042.022.085.043.13.062.986.406 2.053-.439 1.525-.968a.468.468 0 0 0-.662 0c-.286.287-.759.09-.796-.276-.032-.752-.96-.63-.939-.04.005.393.094.64-.152.842a.407.407 0 0 1-.365.083c-.111 0-.433-.225-.339-.576a.47.47 0 0 1 .347-.336.594.594 0 0 0 .271-1.01.476.476 0 0 1-.149-.341c-.007-.417.52-.641.812-.33a.592.592 0 0 0 1.006-.27.475.475 0 0 1 .218-.294c.353-.211.804.113.694.525zM22.855 22.156a.469.469 0 1 1-.938 0 .469.469 0 0 1 .938 0zM24.105 23.906a.469.469 0 1 1-.938 0 .469.469 0 0 1 .938 0zM21.605 25.281a.469.469 0 1 1-.938 0 .469.469 0 0 1 .938 0z"/>
    </symbol>
    <symbol id="icon-3-fish" viewBox="0 0 32 32">
      <path fill="#db9b7c" style="fill:var(--color17, #db9b7c)" d="M18.446 6.398a15.054 15.054 0 0 1 4.255 8.51L23.999 24l-9.092-1.299a15.048 15.048 0 0 1-12.74-12.605L1.016 2.614a1.403 1.403 0 0 1 1.598-1.598l7.483 1.151a15.04 15.04 0 0 1 8.35 4.231z"/>
      <path fill="#efbe9a" style="fill:var(--color18, #efbe9a)" d="M2.318 10.922a15.016 15.016 0 0 1-.151-.826L1.016 2.614a1.403 1.403 0 0 1 1.598-1.598l7.483 1.151c.277.042.553.093.826.151a6.5 6.5 0 0 1-8.605 8.603z"/>
      <path fill="#e47c6e" style="fill:var(--color19, #e47c6e)" d="m16.108 22.872-1.2-.171A15.042 15.042 0 0 1 4.5 16.125v1.729a3.72 3.72 0 0 0 1.857 3.221l4.872 2.821A3.723 3.723 0 0 0 16 23l.108-.128zM23.5 20l.77-1.54a8.344 8.344 0 0 0 .206-7.016l-.809-1.889a8.342 8.342 0 0 0-7.542-5.054V4.5a15.048 15.048 0 0 1 6.576 10.408l.729 5.102.07-.01zM31 24.5a7.309 7.309 0 0 0-5.346-.867L24 24l-.367 1.654A7.309 7.309 0 0 0 24.5 31l2-4.5 4.5-2z"/>
      <path fill="#606060" style="fill:var(--color20, #606060)" d="M6 4.999a1 1 0 1 1 0-2 1 1 0 0 1 0 2z"/>
      <path fill="#db9b7c" style="fill:var(--color17, #db9b7c)" d="m1.852 5.145-.526-.522.249 1.619A7.271 7.271 0 0 0 6.329 8H7.5V7H6.329a6.288 6.288 0 0 1-4.476-1.855z"/>
      <path fill="#efbe9a" style="fill:var(--color18, #efbe9a)" d="M14 9.499h-2v-1h1.792l.708-.707V6h1v2a.5.5 0 0 1-.146.354l-1 1a.503.503 0 0 1-.354.145zM8 15.499H6v-1h1.792l.708-.707V12h1v2a.5.5 0 0 1-.146.354l-1 1a.503.503 0 0 1-.354.145zM12.5 13.999h-2v-1h1.792l.708-.707V10.5h1v2a.5.5 0 0 1-.146.354l-1 1a.503.503 0 0 1-.354.145zM17 12.499h-2v-1h1.792l.708-.707V9h1v2a.5.5 0 0 1-.146.354l-1 1a.503.503 0 0 1-.354.145zM11 18.499H9v-1h1.792l.708-.707V15h1v2a.5.5 0 0 1-.146.354l-1 1a.503.503 0 0 1-.354.145zM15.5 16.999h-2v-1h1.792l.708-.707V13.5h1v2a.5.5 0 0 1-.146.354l-1 1a.503.503 0 0 1-.354.145zM20 15.499h-1.5v-1h1.293l.707-.707V12.5h1l.001 1.5c0 .132-.053.26-.147.354l-1 1a.503.503 0 0 1-.354.145zM14 21.499h-1.5v-1h1.293l.707-.707V18.5h1l.001 1.5c0 .132-.053.26-.147.354l-1 1a.503.503 0 0 1-.354.145zM18.5 19.999h-2v-1h1.792l.708-.707V16.5h1v2a.5.5 0 0 1-.146.354l-1 1a.503.503 0 0 1-.354.145z"/>
      <path fill="#c66b60" style="fill:var(--color21, #c66b60)" d="M23.667 9.555a8.448 8.448 0 0 0-.537-1.041l-4.176-1.566c.437.484.844.991 1.213 1.523l3.617 1.357-.117-.273zM21.732 11.345l3.144 1.306a8.443 8.443 0 0 0-.399-1.207l-.022-.051-3.362-1.397c.233.44.451.888.639 1.349zM22.545 14.06l2.588 1.075a8.406 8.406 0 0 0-.012-1.088l-2.872-1.193c.115.397.213.799.296 1.206zM12.059 24.247l-.485-2.428c-.379-.148-.752-.31-1.118-.488l.479 2.394.295.171c.265.154.544.269.829.351zM6.229 18.268l1.129 3.387 1.306.756-.932-2.796a14.885 14.885 0 0 1-1.333-1.169c-.059-.058-.113-.119-.17-.178z"/>
      <path fill="#1a1a1a" style="fill:var(--color7, #1a1a1a)" d="M31.257 24.071a7.783 7.783 0 0 0-5.712-.927l-1.127.251-.457-3.2.756-1.511a8.829 8.829 0 0 0 .219-7.437l-.81-1.889a8.83 8.83 0 0 0-7.849-5.348 15.42 15.42 0 0 0-6.104-2.337L2.689.522c-.595-.091-1.206.109-1.633.535S.43 2.095.521 2.69l1.151 7.483a15.445 15.445 0 0 0 2.327 6.09v1.593c0 1.501.807 2.901 2.106 3.653l4.872 2.821c.67.388 1.402.575 2.125.575a4.192 4.192 0 0 0 3.203-1.498l7.088 1.013-.25 1.127a7.772 7.772 0 0 0 .927 5.711c.09.151.253.243.428.243l.031-.001a.499.499 0 0 0 .426-.296l1.922-4.324 4.325-1.922a.5.5 0 0 0 .054-.886zm-16.279-1.865a14.634 14.634 0 0 1-8.226-4.113 14.416 14.416 0 0 1-3.716-6.381A6.99 6.99 0 0 0 5 11.999c3.859 0 7-3.14 7-7 0-.674-.102-1.33-.288-1.964a14.431 14.431 0 0 1 6.38 3.716 14.632 14.632 0 0 1 4.114 8.226l1.204 8.432-8.432-1.204zm-4.174.865-2.38-1.377-.412-1.236a15.722 15.722 0 0 0 2.563 1.469l.229 1.144zM23.207 9.752l.586 1.367-1.994-.829a15.792 15.792 0 0 0-.843-1.523l2.17.814c.026.057.056.112.081.171zm-.851 1.853 1.942.807c.144.464.235.938.291 1.414l-1.759-.731a15.82 15.82 0 0 0-.474-1.49zm1.466 6.631-.11.219-.517-3.618c-.026-.185-.068-.366-.101-.549l1.553.645a7.826 7.826 0 0 1-.825 3.303zM22.33 8.215l-2.414-.905A15.383 15.383 0 0 0 18.8 6.045a16.6 16.6 0 0 0-.863-.798 7.823 7.823 0 0 1 4.393 2.968zM1.763 1.763a.909.909 0 0 1 .774-.254L10.02 2.66c.183.028.361.071.542.105.285.709.438 1.457.438 2.233 0 3.308-2.692 6-6 6a5.954 5.954 0 0 1-2.233-.437c-.034-.18-.077-.359-.105-.541l-.513-3.334a7.273 7.273 0 0 0 4.179 1.313h1.171v-1H6.328c-1.66 0-3.22-.638-4.407-1.792l-.411-2.67a.908.908 0 0 1 .254-.774zM5 17.854v-.222c.329.402.672.795 1.045 1.168.167.168.347.321.521.481l.553 1.658-.512-.297A3.226 3.226 0 0 1 5 17.855zm6.945 5.826-.259-1.294c1.019.375 2.073.656 3.151.81l.209.03a3.18 3.18 0 0 1-3.101.454zm14.351 2.362a.507.507 0 0 0-.254.254l-1.572 3.537a6.776 6.776 0 0 1-.35-4.071l.298-1.343 1.344-.299a6.783 6.783 0 0 1 4.071.351l-3.537 1.572z"/>
      <path fill="#1a1a1a" style="fill:var(--color7, #1a1a1a)" d="M6 4.999a1 1 0 1 0 0-2 1 1 0 0 0 0 2zM14.354 9.353l1-1a.5.5 0 0 0 .146-.354v-2h-1v1.793l-.707.707h-1.792v1h2a.5.5 0 0 0 .354-.146zM9.5 13.999v-2h-1v1.793l-.707.707H6.001v1h2c.133 0 .26-.053.354-.146l1-1a.504.504 0 0 0 .146-.354zM13.854 12.853a.5.5 0 0 0 .146-.354v-2h-1v1.793l-.707.707h-1.792v1h2c.133 0 .26-.053.354-.146l1-1zM15 12.499h2a.5.5 0 0 0 .354-.146l1-1a.5.5 0 0 0 .146-.354v-2h-1v1.793l-.707.707H15v1zM11.5 16.792l-.707.707H9.001v1h2a.5.5 0 0 0 .354-.146l1-1a.5.5 0 0 0 .146-.354v-2h-1v1.793zM16.999 15.499v-2h-1v1.793l-.707.707H13.5v1h2c.133 0 .26-.053.354-.146l1-1a.503.503 0 0 0 .145-.354zM20.5 13.792l-.707.707h-1.292v1h1.5a.5.5 0 0 0 .354-.146l1-1a.5.5 0 0 0 .146-.354v-1.5h-1v1.293zM14.5 19.792l-.707.707h-1.292v1h1.5c.133 0 .26-.053.354-.146l1-1a.5.5 0 0 0 .146-.354v-1.5h-1v1.293zM19 18.292l-.707.707h-1.792v1h2a.5.5 0 0 0 .354-.146l1-1a.5.5 0 0 0 .146-.354v-2h-1v1.793z"/>
    </symbol>
    <symbol id="icon-4-meat" viewBox="0 0 32 32">
      <path fill="#ea3942" style="fill:var(--color22, #ea3942)" d="M21.303 24.925c-1.95-.048-3.189-.99-3.902-1.849-.639-.769-.919-1.828-1.244-3.053-.452-1.705-1.014-3.827-2.777-5.78-1.748-1.937-3.91-2.78-5.817-3.524-2.816-1.098-3.958-1.644-3.958-4.145 0-.274.001-.866.505-1.549C1.874 6.504.443 8.367.477 10.416c.09 5.33 5.605 4.349 8.896 7.994 3.48 3.855.749 7.606 7.799 10.348 3.704 1.441 9.908-.465 13.019-8.162-.077.097-4.776 4.43-8.886 4.329z"/>
      <path fill="#f3e8d7" style="fill:var(--color23, #f3e8d7)" d="M31.524 15.014c0 6.447-5.415 13.081-12.403 11.674-7.434-1.497-4.522-6.204-8.002-10.059-3.291-3.646-9.16-2.253-9.16-7.994 0-5.201 8.986-6.59 17.162-5.294 6.766 1.072 12.403 5.226 12.403 11.673z"/>
      <path fill="#e5d6c1" style="fill:var(--color24, #e5d6c1)" d="M27.013 6.48c1.195 1.664 1.891 3.645 1.891 5.91 0 6.447-5.415 13.081-12.403 11.673-1.055-.212-1.902-.49-2.588-.82.696 1.533 1.971 2.793 5.207 3.444 6.988 1.407 12.403-5.227 12.403-11.674 0-3.61-1.768-6.501-4.511-8.534z"/>
      <path fill="#fc4e51" style="fill:var(--color25, #fc4e51)" d="M21.003 24.571a6.742 6.742 0 0 1-3.049-.559c-.65-.291-1.264-.7-1.68-1.279-.453-.629-.638-1.406-.832-2.157-.412-1.598-.918-3.204-1.86-4.557-1.391-1.999-3.614-3.269-5.897-4.109-.804-.296-1.638-.555-2.335-1.055S4.106 9.548 4.176 8.693c.09-1.099 1.12-1.869 2.125-2.319 2.768-1.239 5.971-1.42 8.959-1.194 3.046.23 6.301.789 9.005 2.273 2.671 1.466 4.653 3.998 4.92 7.08.262 3.032-1.144 6.304-3.494 8.235a8.03 8.03 0 0 1-4.688 1.803z"/>
      <path fill="#ea3942" style="fill:var(--color22, #ea3942)" d="M29.185 14.533c-.236-2.726-1.814-5.021-4.024-6.53a8.267 8.267 0 0 1 1.367 3.867c.262 3.032-1.144 6.304-3.494 8.235a8.03 8.03 0 0 1-4.689 1.803 6.81 6.81 0 0 1-2.647-.397c.137.435.311.853.575 1.221.416.579 1.031.988 1.68 1.279.959.43 2.005.604 3.049.559a8.025 8.025 0 0 0 4.688-1.803c2.35-1.932 3.756-5.204 3.494-8.235z"/>
      <path fill="#f3e8d7" style="fill:var(--color23, #f3e8d7)" d="M15.021 9.399c0 1.082-.875 1.959-1.955 1.959s-1.955-.877-1.955-1.959.875-1.959 1.955-1.959 1.955.877 1.955 1.959z"/>
      <path fill="#1a1a1a" style="fill:var(--color7, #1a1a1a)" d="M28.173 6.803c-2.252-1.976-5.44-3.373-8.978-3.933-3.137-.497-6.378-.594-9.126-.272-3.033.355-5.405 1.201-6.86 2.446a6.217 6.217 0 0 0-.223.201C1.001 6.796-.031 8.586 0 10.424c.027 1.599.525 2.829 1.523 3.76.875.816 2.016 1.319 3.224 1.851 1.5.66 3.051 1.343 4.272 2.696 1.25 1.385 1.657 2.773 2.051 4.116.332 1.132.675 2.302 1.512 3.389.935 1.216 2.339 2.158 4.417 2.967a7.282 7.282 0 0 0 2.641.471c1.474 0 3.035-.389 4.484-1.147 1.947-1.02 4.651-3.186 6.491-7.711.889-1.798 1.386-3.804 1.386-5.801 0-3.175-1.323-6.015-3.827-8.211zm-4.491 20.878c-2.125 1.113-4.495 1.35-6.339.632-4.151-1.615-4.711-3.524-5.36-5.736-.404-1.378-.862-2.941-2.258-4.487-1.358-1.505-3.078-2.262-4.595-2.93-2.306-1.015-4.128-1.817-4.178-4.753-.013-.757.202-1.452.54-2.077-.006.101-.01.202-.01.304 0 1.719.508 3.014 1.552 3.959.915.828 2.111 1.294 3.376 1.788 1.546.603 3.144 1.227 4.355 2.568 1.215 1.346 1.605 2.819 1.983 4.243.342 1.288.664 2.505 1.543 3.565.983 1.184 2.488 1.946 4.735 2.399a9.866 9.866 0 0 0 1.954.197c1.866 0 3.682-.541 5.307-1.584a11.187 11.187 0 0 1-2.607 1.913zm6.109-7.345a.443.443 0 0 0-.042.081l-.017.04c-.741 1.477-1.77 2.8-3.02 3.825-1.253 1.029-3.177 2.122-5.689 2.122a9.178 9.178 0 0 1-1.809-.184c-4.382-.883-4.896-2.82-5.545-5.273-.388-1.463-.827-3.12-2.197-4.638-1.362-1.509-3.144-2.204-4.716-2.817-2.415-.942-4.322-1.686-4.322-4.857 0-1.11.469-2.074 1.393-2.865 1.82-1.558 5.407-2.408 9.656-2.408 1.766 0 3.646.147 5.562.45 3.362.533 6.381 1.85 8.499 3.709 2.291 2.01 3.502 4.601 3.502 7.493 0 1.831-.45 3.67-1.257 5.322z"/>
      <path fill="#1a1a1a" style="fill:var(--color7, #1a1a1a)" d="M29.225 15.539a.476.476 0 0 0-.514.435c-.196 2.329-1.357 4.669-3.055 6.196-.623-.495-.867-1.293-1.243-2.521-.313-1.023-.702-2.297-1.46-3.853-.723-1.485-2.068-2.744-3.459-3.736 1.052-.614 3.594-1.771 7.601-1.591a7.973 7.973 0 0 1 1.522 3.393.476.476 0 1 0 .937-.172c-.262-1.438-.895-2.789-1.829-3.964l-.021-.027a10.675 10.675 0 0 0-3.207-2.664C22.139 5.74 19.216 5 15.299 4.704c-3.703-.28-6.708.125-9.189 1.235-1.157.518-1.933 1.23-2.251 2.049l-.007.019a2.365 2.365 0 0 0-.147.647c-.076.935.449 1.927 1.371 2.589.507.364 1.073.603 1.509.771a.477.477 0 0 0 .341-.89c-.407-.157-.879-.357-1.295-.656-.511-.367-1.036-1.015-.977-1.735l.012-.101c2.234-.043 4.772.4 5.976.641a2.437 2.437 0 0 0 2.428 2.562c.865 0 1.625-.455 2.056-1.139 1.586.705 5.608 2.717 6.973 5.519.725 1.489 1.103 2.722 1.406 3.714.376 1.228.667 2.179 1.39 2.845a7.611 7.611 0 0 1-3.909 1.321c-1.014.044-1.968-.13-2.834-.518-.666-.298-1.167-.676-1.489-1.122-.379-.527-.55-1.191-.731-1.894l-.027-.104c-.413-1.599-.932-3.276-1.93-4.711-1.08-1.552-2.749-2.836-4.961-3.815a.477.477 0 0 0-.385.873c2.05.907 3.585 2.081 4.564 3.488.912 1.31 1.399 2.891 1.789 4.404l.027.103c.195.757.396 1.54.881 2.213.421.585 1.051 1.068 1.872 1.435a7.08 7.08 0 0 0 2.916.608 8.453 8.453 0 0 0 5.302-1.907l.003-.003a.106.106 0 0 0 .011-.009c2.065-1.698 3.436-4.346 3.666-7.083a.476.476 0 0 0-.434-.515zM14.541 9.507c-.039.274-.049.446-.277.76a1.477 1.477 0 0 1-2.675-.853c.031-.503.213-.781.213-.781a1.48 1.48 0 0 1 1.266-.717c.815 0 1.479.665 1.479 1.482 0 .036-.002.072-.004.108zm.923.294a2.437 2.437 0 0 0-2.398-2.838c-.964 0-1.799.566-2.192 1.383-1.129-.23-3.467-.646-5.693-.67.277-.287.692-.588 1.314-.866 2.333-1.044 5.188-1.421 8.729-1.154 3.777.285 6.577.989 8.812 2.216a9.995 9.995 0 0 1 2.198 1.624c-4.274.001-6.795 1.427-7.611 1.98a24.157 24.157 0 0 0-3.159-1.675z"/>
    </symbol>
    <symbol id="icon-5-soft-drink" viewBox="0 0 32 32">
      <path fill="#ebebe9" style="fill:var(--color26, #ebebe9)" d="M30.173 21.482a6.373 6.373 0 0 0 0 4.035c.217.651.327 1.332.327 2.018v1.197a1.77 1.77 0 0 1-2.112 1.734 1.76 1.76 0 0 1-.905-.484l-.482-.483-.293.293a2.414 2.414 0 0 1-3.414 0l-.293-.293-.483.483a1.758 1.758 0 0 1-1.926.383 1.765 1.765 0 0 1-1.091-1.633v-1.197c0-.686.111-1.367.327-2.018a6.373 6.373 0 0 0 0-4.035 6.363 6.363 0 0 1-.327-1.982l-.001-.036V12.5a4.825 4.825 0 0 1 1.415-3.414l.671-.671A4.835 4.835 0 0 0 23 5.001v-1h4v1a4.83 4.83 0 0 0 1.414 3.414l.671.671a4.828 4.828 0 0 1 1.414 3.414v6.964l-.001.036a6.436 6.436 0 0 1-.327 1.983z"/>
      <path fill="#7eb457" style="fill:var(--color27, #7eb457)" d="M30.173 21.482a6.373 6.373 0 0 0 0 4.035c.217.651.327 1.332.327 2.018v1.197a1.77 1.77 0 0 1-2.112 1.734 1.76 1.76 0 0 1-.905-.484l-.482-.482-.293.293a2.414 2.414 0 0 1-3.414 0l-.293-.293-.483.482a1.758 1.758 0 0 1-1.926.383 1.765 1.765 0 0 1-1.091-1.633v-1.197c0-.686.111-1.367.327-2.018a6.387 6.387 0 0 0 0-4.035 6.363 6.363 0 0 1-.327-1.982H19.5v-7a4.825 4.825 0 0 1 1.415-3.414l.671-.671a4.82 4.82 0 0 0 .98-1.414h4.869c.239.527.571 1.006.98 1.414l.671.671a4.822 4.822 0 0 1 1.414 3.415v7h-.001a6.436 6.436 0 0 1-.327 1.983z"/>
      <path fill="#79ad54" style="fill:var(--color28, #79ad54)" d="M30.173 21.482a6.373 6.373 0 0 0 0 4.035c.217.651.327 1.332.327 2.018v1.197a1.77 1.77 0 0 1-2.112 1.734 1.76 1.76 0 0 1-.905-.484l-.482-.482-.293.293a2.414 2.414 0 0 1-3.414 0l-.293-.293-.483.482a1.758 1.758 0 0 1-1.926.383 1.765 1.765 0 0 1-1.091-1.633v-1.197c0-.686.111-1.367.327-2.018a6.354 6.354 0 0 0 .269-2.874c3.953-2.312 7.549-5.763 10.37-10.704.022.186.033.373.033.561v7h-.001a6.436 6.436 0 0 1-.327 1.983z"/>
      <path fill="#d0d24b" style="fill:var(--color29, #d0d24b)" d="M19.5 12.5h11v7h-11v-7z"/>
      <path fill="#c7c934" style="fill:var(--color30, #c7c934)" d="M30.5 12.5v7h-6.079c2.109-1.879 4.042-4.189 5.72-7h.359z"/>
      <path fill="#dee051" style="fill:var(--color31, #dee051)" d="M21 14h1v1h-1v-1zM21 16h1v2h-1v-2z"/>
      <path fill="#e0e0de" style="fill:var(--color32, #e0e0de)" d="M27.026 5.5h-4.052c.018-.166.026-.333.026-.5V4h4v1c0 .167.009.334.026.5z"/>
      <path fill="#7eb457" style="fill:var(--color27, #7eb457)" d="M23.5 1.5h3a.498.498 0 0 1 .5.5v2h-4V2a.498.498 0 0 1 .5-.5z"/>
      <path fill="#ebebe9" style="fill:var(--color26, #ebebe9)" d="M22.5 3.5h5v1h-5v-1zM12.172 21.482a6.373 6.373 0 0 0 0 4.035 6.38 6.38 0 0 1 .328 2.018v1.197a1.77 1.77 0 0 1-2.112 1.734 1.76 1.76 0 0 1-.905-.484l-.482-.483-.293.293a2.414 2.414 0 0 1-3.414 0l-.293-.293-.483.483a1.758 1.758 0 0 1-1.926.383 1.765 1.765 0 0 1-1.091-1.633v-1.197c0-.686.111-1.367.328-2.018s.327-1.332.328-2.018a6.38 6.38 0 0 0-.328-2.018 6.363 6.363 0 0 1-.327-1.982l-.001-.036v-6.964a4.825 4.825 0 0 1 1.415-3.414l.671-.671A4.82 4.82 0 0 0 5.001 5V4h4v1a4.83 4.83 0 0 0 1.414 3.414l.671.671a4.828 4.828 0 0 1 1.414 3.414v6.964l-.001.036a6.436 6.436 0 0 1-.327 1.983z"/>
      <path fill="#fa6d00" style="fill:var(--color33, #fa6d00)" d="M12.172 21.482a6.373 6.373 0 0 0 0 4.035 6.38 6.38 0 0 1 .328 2.018v1.197a1.77 1.77 0 0 1-2.112 1.734 1.76 1.76 0 0 1-.905-.484l-.482-.482-.293.293a2.414 2.414 0 0 1-3.414 0l-.293-.293-.483.482a1.758 1.758 0 0 1-1.926.383 1.765 1.765 0 0 1-1.091-1.633v-1.197c0-.686.111-1.367.328-2.018a6.408 6.408 0 0 0 .27-2.874 6.499 6.499 0 0 0-.269-1.161 6.363 6.363 0 0 1-.327-1.982h-.001v-7a4.825 4.825 0 0 1 1.415-3.414l.671-.671a4.82 4.82 0 0 0 .98-1.414h4.869c.239.527.571 1.006.98 1.414l.671.671a4.822 4.822 0 0 1 1.414 3.415v7h-.001a6.436 6.436 0 0 1-.327 1.983z"/>
      <path fill="#f86400" style="fill:var(--color34, #f86400)" d="M12.172 21.482a6.373 6.373 0 0 0 0 4.035 6.38 6.38 0 0 1 .328 2.018v1.197a1.77 1.77 0 0 1-2.112 1.734 1.76 1.76 0 0 1-.905-.484l-.482-.482-.293.293a2.414 2.414 0 0 1-3.414 0l-.293-.293-.483.482a1.758 1.758 0 0 1-1.926.383 1.765 1.765 0 0 1-1.091-1.633v-1.197c0-.686.111-1.367.328-2.018a6.407 6.407 0 0 0 .27-2.873c3.953-2.312 7.549-5.763 10.37-10.704.022.186.033.373.033.561v7h-.001a6.436 6.436 0 0 1-.327 1.983z"/>
      <path fill="#f98500" style="fill:var(--color35, #f98500)" d="M1.5 12.5h11v7h-11v-7z"/>
      <path fill="#f77c00" style="fill:var(--color36, #f77c00)" d="M12.5 12.5v7H6.421c2.109-1.879 4.042-4.189 5.72-7h.359z"/>
      <path fill="#e0e0de" style="fill:var(--color32, #e0e0de)" d="M9.026 5.5H4.974C4.992 5.334 5 5.167 5 5V4h4v1c0 .167.009.334.026.5z"/>
      <path fill="#fa6d00" style="fill:var(--color33, #fa6d00)" d="M5.5 1.5h3A.498.498 0 0 1 9 2v2H5V2a.498.498 0 0 1 .5-.5z"/>
      <path fill="#ebebe9" style="fill:var(--color26, #ebebe9)" d="M4.5 3.5h5v1h-5v-1zM21.173 21.482a6.373 6.373 0 0 0 0 4.035c.217.651.327 1.332.327 2.018v1.197a1.77 1.77 0 0 1-2.112 1.734 1.76 1.76 0 0 1-.905-.484l-.482-.483-.293.293a2.414 2.414 0 0 1-3.414 0l-.293-.293-.483.483a1.758 1.758 0 0 1-1.926.383 1.765 1.765 0 0 1-1.091-1.633v-1.197c0-.686.111-1.367.328-2.018a6.373 6.373 0 0 0 0-4.035 6.363 6.363 0 0 1-.327-1.982l-.001-.036V12.5a4.825 4.825 0 0 1 1.415-3.414l.671-.671a4.835 4.835 0 0 0 1.414-3.414v-1h4v1a4.83 4.83 0 0 0 1.414 3.414l.671.671A4.828 4.828 0 0 1 21.5 12.5v6.964l-.001.036a6.436 6.436 0 0 1-.327 1.983z"/>
      <path fill="#693924" style="fill:var(--color37, #693924)" d="M21.173 21.482a6.373 6.373 0 0 0 0 4.035c.217.651.327 1.332.327 2.018v1.197a1.77 1.77 0 0 1-2.112 1.734 1.76 1.76 0 0 1-.905-.484l-.482-.482-.293.293a2.414 2.414 0 0 1-3.414 0l-.293-.293-.483.482a1.758 1.758 0 0 1-1.926.383 1.765 1.765 0 0 1-1.091-1.633v-1.197c0-.686.111-1.367.328-2.018a6.387 6.387 0 0 0 0-4.035 6.363 6.363 0 0 1-.327-1.982h-.001v-7a4.825 4.825 0 0 1 1.415-3.414l.671-.671a4.82 4.82 0 0 0 .98-1.414h4.869c.239.527.571 1.006.98 1.414l.671.671a4.822 4.822 0 0 1 1.414 3.415v7H21.5a6.436 6.436 0 0 1-.327 1.983z"/>
      <path fill="#5c2e1a" style="fill:var(--color38, #5c2e1a)" d="M21.173 21.482a6.373 6.373 0 0 0 0 4.035c.217.651.327 1.332.327 2.018v1.197a1.77 1.77 0 0 1-2.112 1.734 1.76 1.76 0 0 1-.905-.484l-.482-.482-.293.293a2.414 2.414 0 0 1-3.414 0l-.293-.293-.483.482a1.758 1.758 0 0 1-1.926.383 1.765 1.765 0 0 1-1.091-1.633v-1.197c0-.686.111-1.367.328-2.018a6.354 6.354 0 0 0 .269-2.874c3.953-2.312 7.549-5.763 10.37-10.704.022.186.033.373.033.561v7H21.5a6.436 6.436 0 0 1-.327 1.983z"/>
      <path fill="#f35244" style="fill:var(--color39, #f35244)" d="M10.5 12.5h11v7h-11v-7z"/>
      <path fill="#e64c3f" style="fill:var(--color40, #e64c3f)" d="M21.5 12.5v7h-6.079c2.109-1.879 4.042-4.189 5.72-7h.359z"/>
      <path fill="#e0e0de" style="fill:var(--color32, #e0e0de)" d="M18.026 5.5h-4.052c.018-.166.026-.333.026-.5V4h4v1c0 .167.009.334.026.5z"/>
      <path fill="#f35244" style="fill:var(--color39, #f35244)" d="M14.5 1.5h3a.498.498 0 0 1 .5.5v2h-4V2a.498.498 0 0 1 .5-.5z"/>
      <path fill="#ebebe9" style="fill:var(--color26, #ebebe9)" d="M13.5 3.5h5v1h-5v-1zM26.5 15.5v3.667a7.765 7.765 0 0 1-.82 3.472 7.793 7.793 0 0 0-.797 2.878L24.5 30.5h-6l-.383-4.983a7.774 7.774 0 0 0-.797-2.878 7.752 7.752 0 0 1-.82-3.472V15.5h10z"/>
      <path fill="#f98500" style="fill:var(--color35, #f98500)" d="M26.5 18v1.167a7.77 7.77 0 0 1-.82 3.473 7.793 7.793 0 0 0-.797 2.878l-.383 4.983h-6l-.197-2.56-.186-2.423a7.774 7.774 0 0 0-.797-2.878 7.752 7.752 0 0 1-.82-3.472v-1.167h10z"/>
      <path fill="#f77c00" style="fill:var(--color36, #f77c00)" d="M26.471 19.838a7.776 7.776 0 0 1-.791 2.802 7.793 7.793 0 0 0-.797 2.877L24.5 30.5h-6l-.197-2.56c2.956-1.911 5.735-4.556 8.168-8.102z"/>
      <path fill="#1a1a1a" style="fill:var(--color7, #1a1a1a)" d="M30.594 10.461a5.31 5.31 0 0 0-1.155-1.729l-.671-.671A4.337 4.337 0 0 1 27.5 5v-.5h.5v-1h-.5V2a1.003 1.003 0 0 0-1-1h-3a1.003 1.003 0 0 0-1 1v1.5H22v1h.5V5a4.337 4.337 0 0 1-1.268 3.061l.707.707c.999-1 1.56-2.355 1.561-3.768v-.5h3V5a5.336 5.336 0 0 0 1.561 3.768l.671.671A4.32 4.32 0 0 1 29.97 12H23v1h7v6h-2v1h1.975a5.887 5.887 0 0 1-.277 1.324 6.876 6.876 0 0 0 0 4.351c.2.6.302 1.228.302 1.86v1.197a1.273 1.273 0 0 1-1.515 1.243 1.269 1.269 0 0 1-.649-.347l-.483-.482a.505.505 0 0 0-.544-.108.505.505 0 0 0-.162.108l-.293.293a1.814 1.814 0 0 1-.187.164l.609.793c.078-.06.152-.123.223-.19l.13.13a2.272 2.272 0 0 0 2.471.492 2.27 2.27 0 0 0 1.4-2.095v-1.197c0-.74-.119-1.474-.353-2.176a5.882 5.882 0 0 1 0-3.718 6.818 6.818 0 0 0 .352-2.126l.001-.015v-7c0-.7-.137-1.393-.406-2.039zM23.5 3.5V2h3v1.5h-3zM8.353 29.44a1.913 1.913 0 0 1-2.706 0l-.293-.293a.505.505 0 0 0-.544-.108.505.505 0 0 0-.162.108l-.482.482a1.269 1.269 0 0 1-2.164-.896v-1.197c0-.632.102-1.26.302-1.86a6.871 6.871 0 0 0 0-4.351 5.876 5.876 0 0 1-.277-1.324h6.975v-1h-7v-6h7v-1h-6.97A4.3 4.3 0 0 1 3.27 9.44l.671-.671a5.29 5.29 0 0 0 .936-1.268h4.249c.247.467.563.894.936 1.268l.707-.707a4.337 4.337 0 0 1-1.268-3.061v-.5h.5v-1h-.5v-1.5a1.003 1.003 0 0 0-1-1h-3a1.003 1.003 0 0 0-1 1v1.5h-.5v1h.5v.5a4.282 4.282 0 0 1-.39 1.793 4.309 4.309 0 0 1-.878 1.267l-.671.671A5.304 5.304 0 0 0 1.001 12.5v7l.001.015c.005.722.124 1.44.352 2.125a5.882 5.882 0 0 1 0 3.719 6.884 6.884 0 0 0-.353 2.177v1.197a2.268 2.268 0 0 0 3.871 1.603l.13-.13a2.913 2.913 0 0 0 4.059-.059l.293-.293-.707-.707-.293.293zM5.5 4.5h3V5a5.287 5.287 0 0 0 .215 1.5H5.284c.143-.487.216-.992.215-1.5v-.5zm0-2.5h3v1.5h-3V2z"/>
      <path fill="#1a1a1a" style="fill:var(--color7, #1a1a1a)" d="M3 14h1v1H3v-1zM3 16h1v2H3v-2zM16 30a1.926 1.926 0 0 1-1.353-.56l-.293-.293a.505.505 0 0 0-.544-.108.495.495 0 0 0-.162.108l-.483.482a1.269 1.269 0 0 1-2.164-.896v-1.197c0-.632.102-1.26.302-1.86a6.876 6.876 0 0 0 0-4.351 5.876 5.876 0 0 1-.277-1.324h3.975v-1h-4v-6h10v1h1v-1.5a5.323 5.323 0 0 0-1.102-3.244c-.138-.182-1.13-1.195-1.13-1.195a4.337 4.337 0 0 1-1.268-3.061v-.5h.5v-1h-.5v-1.5a1.003 1.003 0 0 0-1-1h-3a1.003 1.003 0 0 0-1 1v1.5h-.5v1h.5v.5a4.337 4.337 0 0 1-1.268 3.061l-.671.671a5.352 5.352 0 0 0-1.561 3.768v7l.001.015c.005.722.124 1.44.352 2.125a5.882 5.882 0 0 1 0 3.718 6.884 6.884 0 0 0-.353 2.177v1.197a2.278 2.278 0 0 0 1.282 2.043 2.27 2.27 0 0 0 2.59-.438l.13-.13a2.935 2.935 0 0 0 1.999.794 2.9 2.9 0 0 0 1.115-.222l-.382-.924a1.917 1.917 0 0 1-.733.146zM14.5 4.5h3V5a5.287 5.287 0 0 0 .215 1.5h-3.431c.143-.487.216-.992.215-1.5v-.5zm0-2.5h3v1.5h-3V2zm-2.602 7.862c.111-.146 1.042-1.094 1.042-1.094a5.29 5.29 0 0 0 .936-1.268h4.249c.247.467.563.894.936 1.268 0 0 .93.948 1.043 1.096.477.62.777 1.358.866 2.136h-9.94a4.35 4.35 0 0 1 .868-2.138z"/>
      <path fill="#1a1a1a" style="fill:var(--color7, #1a1a1a)" d="M12 14h1v1h-1v-1zM12 16h1v2h-1v-2zM27 15.5a.498.498 0 0 0-.5-.5h-10a.498.498 0 0 0-.5.5v3.667c0 1.283.298 2.549.873 3.696.421.841.674 1.755.746 2.692l.383 4.983a.5.5 0 0 0 .499.462h6a.504.504 0 0 0 .499-.462l.383-4.983a7.31 7.31 0 0 1 .745-2.692 8.304 8.304 0 0 0 .873-3.696V15.5zm-1 .5v1.5h-9V16h9zm-.767 6.416a8.275 8.275 0 0 0-.848 3.063L24.037 30h-5.074l-.348-4.522a8.264 8.264 0 0 0-.848-3.062A7.244 7.244 0 0 1 17 19.167V18.5h9v.667a7.297 7.297 0 0 1-.767 3.249z"/>
      <path fill="#1a1a1a" style="fill:var(--color7, #1a1a1a)" d="M20 26.5h1v1h-1v-1zM21.5 24.5h1v1h-1v-1zM20.5 21h1v1h-1v-1z"/>
    </symbol>
    <symbol id="icon-6-snacks" viewBox="0 0 32 32">
      <path fill="#13da63" style="fill:var(--color41, #13da63)" d="M18.5 28.5h-16s-1-8-1-12.5 1-12.5 1-12.5h16s1 8 1 12.5-1 12.5-1 12.5z"/>
      <path fill="#a82a27" style="fill:var(--color42, #a82a27)" d="M10.5 11.5c2.761 0 5-1.119 5-2.5s-2.239-2.5-5-2.5-5 1.119-5 2.5 2.239 2.5 5 2.5z"/>
      <path fill="#0aad4b" style="fill:var(--color43, #0aad4b)" d="M18.5 3.5h-16l-1-2h18l-1 2zM2.5 28.5h16l1 2h-18l1-2z"/>
      <path fill="#e09f2c" style="fill:var(--color44, #e09f2c)" d="M11.159 16.5c1.933 0 3.5.343 3.5 2s-1.567 3-3.5 3-3.5-1.343-3.5-3 1.567-2 3.5-2z"/>
      <path fill="#f7b030" style="fill:var(--color45, #f7b030)" d="M9.049 16.732c1.367 1.367 2.232 2.717 1.061 3.889s-3.229 1.013-4.596-.354-1.525-3.425-.353-4.596 2.522-.306 3.889 1.061zM12.5 11.5h14v19h-14v-19z"/>
      <path fill="#e09f2c" style="fill:var(--color44, #e09f2c)" d="M26.5 11.5h4v19h-4v-19z"/>
      <path fill="#d49073" style="fill:var(--color46, #d49073)" d="M19.5 25.5a3.5 3.5 0 1 0 0-7 3.5 3.5 0 0 0 0 7z"/>
      <path fill="#ad6643" style="fill:var(--color47, #ad6643)" d="M15.5 14h8v2h-8v-2z"/>
      <path fill="#1a1a1a" style="fill:var(--color7, #1a1a1a)" d="M13 8.5H8a.498.498 0 0 0-.5.5.498.498 0 0 0 .5.5h5a.498.498 0 0 0 .5-.5.498.498 0 0 0-.5-.5z"/>
      <path fill="#1a1a1a" style="fill:var(--color7, #1a1a1a)" d="M30.5 11H19.761a186.52 186.52 0 0 0-.747-7.411l.933-1.865a.499.499 0 0 0-.447-.723h-18a.503.503 0 0 0-.499.477.499.499 0 0 0 .052.246l.933 1.865C1.849 4.713 1.001 11.861 1.001 16s.849 11.287.985 12.411l-.933 1.865a.499.499 0 0 0 .447.723h29a.498.498 0 0 0 .5-.5v-19a.498.498 0 0 0-.5-.5zM18.691 2l-.5 1H2.809l-.5-1h16.382zM12 30H2.309l.5-1H12v1zm0-9.101a3.535 3.535 0 0 1-1.501.038c1.327-1.372.385-2.909-.459-3.884.372-.038.745-.056 1.119-.054.31 0 .588.009.841.028v3.872zm-2.244-.631c-.462.462-1.112.686-1.833.63-.749-.058-1.479-.407-2.056-.984s-.926-1.307-.984-2.056c-.055-.72.168-1.371.63-1.833.271-.271.546-.402.855-.402.168.003.334.036.49.097.507.186 1.091.621 1.837 1.366 1.864 1.864 1.611 2.631 1.061 3.182zM12 16.026a12.754 12.754 0 0 0-.841-.026c-.803 0-1.436.058-1.958.181-.762-.733-1.401-1.181-1.997-1.4-.89-.327-1.719-.141-2.397.538-.671.671-.998 1.6-.92 2.616.076.987.528 1.941 1.274 2.687s1.7 1.198 2.687 1.274c.099.008.197.011.294.011.444.002.884-.082 1.295-.248a4.515 4.515 0 0 0 2.565.264v6.078H2.945c-.206-1.73-.943-8.181-.943-12s.737-10.27.943-12h15.114c.13 1.086.468 4.028.701 7h-4.112c.876-.539 1.353-1.239 1.353-2 0-.867-.618-1.654-1.741-2.215-1.012-.506-2.347-.785-3.759-.785s-2.747.279-3.759.785c-1.123.561-1.741 1.348-1.741 2.215s.618 1.654 1.741 2.215c1.012.506 2.347.785 3.759.785.502 0 1.003-.036 1.5-.109v4.135zM10.5 11C7.848 11 6 9.946 6 9s1.848-2 4.5-2S15 8.054 15 9s-1.848 2-4.5 2zM26 30H13V12h13v18zm4 0h-3V12h3v18z"/>
      <path fill="#1a1a1a" style="fill:var(--color7, #1a1a1a)" d="M19.5 18a4.004 4.004 0 0 0-3.695 2.469A4 4 0 1 0 23.5 22a4.002 4.002 0 0 0-4-4zm0 7c-.242 0-.483-.029-.718-.087a.5.5 0 1 0-.772-.31 2.996 2.996 0 0 1-.933-4.371.504.504 0 0 0 .825.574.505.505 0 0 0-.082-.691.5.5 0 0 0-.694.055 2.992 2.992 0 0 1 2.374-1.168.504.504 0 0 0 .756.429.5.5 0 0 0 .217-.266 3 3 0 0 1-.972 5.838z"/>
      <path fill="#1a1a1a" style="fill:var(--color7, #1a1a1a)" d="M18 23a.5.5 0 1 0 0-1 .5.5 0 0 0 0 1zM20.5 24a.5.5 0 1 0 0-1 .5.5 0 0 0 0 1zM22 22.5a.5.5 0 1 0 0-1 .5.5 0 0 0 0 1zM20 21.5a.5.5 0 1 0 0-1 .5.5 0 0 0 0 1zM15.5 16.5h8a.498.498 0 0 0 .5-.5v-2a.498.498 0 0 0-.5-.5h-8a.498.498 0 0 0-.5.5v2a.498.498 0 0 0 .5.5zm.5-2h7v1h-7v-1zM21.5 27.5h-4a.498.498 0 0 0-.5.5.498.498 0 0 0 .5.5h4a.498.498 0 0 0 .5-.5.498.498 0 0 0-.5-.5zM6.5 26H9a.498.498 0 0 0 .5-.5.498.498 0 0 0-.5-.5H6.5a.498.498 0 0 0-.5.5.498.498 0 0 0 .5.5zM4.5 26a.5.5 0 1 0 0-1 .5.5 0 0 0 0 1z"/>
    </symbol>
    <symbol id="icon-arrow" viewBox="0 0 32 32">
      <path stroke-linejoin="round" stroke-linecap="round" stroke-width="2.824" d="M2.353 16.426h28.235M13.741 5.084 2.353 16.423l11.388 11.341"/>
    </symbol>
    <symbol id="icon-bag" viewBox="0 0 32 32">
      <path stroke-linejoin="round" stroke-linecap="round" stroke-width="1.981" d="M10.921 13.46h-3.81l-2.54 13.968h22.857l-2.54-13.968h-3.81m-10.157 0V9.65a5.08 5.08 0 0 1 10.158 0v3.81m-10.158 0H21.08m-10.159 0v3.809m10.158-3.809v3.809"/>
    </symbol>
    <symbol id="icon-checkmark" viewBox="0 0 32 32">
      <path stroke-linejoin="round" stroke-linecap="round" stroke-width="2.824" d="M26.04 8.471 12.236 22.275l-6.275-6.274"/>
    </symbol>
    <symbol id="icon-eye" viewBox="0 0 32 32">
      <path stroke-linejoin="round" stroke-linecap="round" stroke-width="2.4" d="M16 5.666c-10 0-14 10.335-14 10.335s4 10.332 14 10.332 14-10.332 14-10.332S26 5.666 16 5.666z"/>
      <path stroke-linejoin="round" stroke-linecap="round" stroke-width="2.4" d="M16 21a4.997 4.997 0 0 0 5-5 5.002 5.002 0 0 0-5-5 5.002 5.002 0 0 0-5 5 5.002 5.002 0 0 0 5 5z"/>
    </symbol>
    <symbol id="icon-heart" viewBox="0 0 32 32">
      <path stroke-width="2.4" d="M15.999 28.072C-10.667 13.333 8-2.667 15.999 7.451c8-10.117 26.667 5.883 0 20.621z"/>
    </symbol>
    <symbol id="icon-star" viewBox="0 0 32 32">
      <path d="m16.509 23.239 5.82 3.687c.744.471 1.667-.23 1.446-1.098l-1.681-6.614a1.012 1.012 0 0 1 .327-1.024l5.219-4.343c.685-.57.332-1.709-.549-1.766l-6.815-.443a.975.975 0 0 1-.837-.617L16.897 4.62a.962.962 0 0 0-1.442-.449.962.962 0 0 0-.352.449l-2.542 6.401a.971.971 0 0 1-.837.617l-6.815.443c-.881.056-1.235 1.194-.549 1.765l5.219 4.344a1.017 1.017 0 0 1 .327 1.024l-1.558 6.134c-.265 1.042.844 1.883 1.735 1.317l5.409-3.426a.944.944 0 0 1 1.018 0h-.001z"/>
    </symbol>
  </defs>
</svg>
