<svg width="24" height="24" fill="none" xmlns="http://www.w3.org/2000/svg">
  <path fill-rule="evenodd" clip-rule="evenodd" d="M12.007.735c.603 0 1.18.24 1.606.668.426.427.665 1.007.665 1.612v6.839h6.813c.602 0 1.18.24 1.606.667a2.284 2.284 0 0 1 0 3.224 2.267 2.267 0 0 1-1.606.668h-6.813v6.839c0 .605-.239 1.184-.665 1.612a2.267 2.267 0 0 1-3.211 0 2.284 2.284 0 0 1-.666-1.612v-6.839H2.924c-.603 0-1.18-.24-1.606-.668a2.284 2.284 0 0 1 0-3.224 2.266 2.266 0 0 1 1.606-.667h6.812v-6.84c0-.604.24-1.184.666-1.611a2.267 2.267 0 0 1 1.605-.668Z" fill="#fff" fill-opacity=".8"/>
</svg>
