<svg aria-hidden="true" style="position: absolute; width: 0; height: 0; overflow: hidden;" version="1.1" xmlns="http://www.w3.org/2000/svg" xmlns:xlink="http://www.w3.org/1999/xlink">
<defs>
<symbol id="icon-Group" viewBox="0 0 32 32">
<path stroke-linejoin="round" stroke-linecap="round" stroke-miterlimit="4" stroke-width="2.2326" d="M22.384 27.543l-0.886-7.549c-0.126-1.069-0.614-2.053-1.373-2.766s-1.738-1.106-2.75-1.106h-3.052c-1.012 0-1.99 0.394-2.749 1.107s-1.247 1.696-1.372 2.765l-0.888 7.549c-0.049 0.415-0.014 0.836 0.102 1.235s0.31 0.768 0.571 1.081c0.26 0.313 0.58 0.564 0.938 0.736s0.747 0.26 1.139 0.26h7.572c0.393 0 0.781-0.089 1.139-0.26s0.678-0.423 0.938-0.736c0.26-0.313 0.454-0.682 0.57-1.081s0.151-0.82 0.102-1.235v0z"></path>
<path stroke-linejoin="miter" stroke-linecap="butt" stroke-miterlimit="4" stroke-width="2.2326" d="M15.849 10.229c2.294 0 4.154-1.979 4.154-4.42s-1.86-4.42-4.154-4.42c-2.294 0-4.154 1.979-4.154 4.42s1.86 4.42 4.154 4.42z"></path>
<path stroke-linejoin="miter" stroke-linecap="butt" stroke-miterlimit="4" stroke-width="2.2326" d="M4.771 14.649c1.53 0 2.77-1.319 2.77-2.947s-1.24-2.947-2.77-2.947-2.769 1.319-2.769 2.947c0 1.627 1.24 2.947 2.769 2.947z"></path>
<path stroke-linejoin="miter" stroke-linecap="butt" stroke-miterlimit="4" stroke-width="2.2326" d="M26.927 14.649c1.53 0 2.77-1.319 2.77-2.947s-1.24-2.947-2.77-2.947c-1.53 0-2.77 1.319-2.77 2.947s1.24 2.947 2.77 2.947z"></path>
<path stroke-linejoin="round" stroke-linecap="round" stroke-miterlimit="4" stroke-width="2.2326" d="M4.771 19.068h-0.424c-0.656-0-1.29 0.247-1.79 0.698s-0.834 1.076-0.942 1.764l-0.461 2.947c-0.066 0.422-0.045 0.855 0.062 1.267s0.297 0.796 0.557 1.122c0.26 0.327 0.584 0.589 0.949 0.769s0.762 0.273 1.165 0.273h5.039"></path>
<path stroke-linejoin="round" stroke-linecap="round" stroke-miterlimit="4" stroke-width="2.2326" d="M26.927 19.068h0.424c0.656-0 1.29 0.247 1.79 0.698s0.834 1.076 0.942 1.764l0.461 2.947c0.066 0.422 0.045 0.855-0.062 1.267s-0.297 0.796-0.557 1.122c-0.26 0.327-0.584 0.589-0.949 0.769s-0.762 0.273-1.165 0.273h-5.039"></path>
</symbol>
<symbol id="icon-Group-209" viewBox="0 0 32 32">
<path d="M30.159 0.63c-1.782-0.399-3.602-0.601-5.429-0.603-1.725-0.11-3.454 0.123-5.088 0.684s-3.142 1.44-4.436 2.586c-1.704 1.704-3.392 3.402-5.063 5.095-1.921-0.206-6.476-0.317-9.524 2.762-0.296 0.297-0.462 0.7-0.462 1.119s0.166 0.822 0.462 1.119l17.936 17.968c0.297 0.296 0.7 0.462 1.119 0.462s0.822-0.166 1.119-0.462c3.095-3.175 3-7.651 2.81-9.524l5.095-5.079c5.063-5.063 2.762-14.571 2.667-14.968-0.073-0.286-0.225-0.546-0.438-0.751s-0.479-0.346-0.768-0.408zM26.413 14.518l-5.651 5.619c-0.183 0.185-0.318 0.412-0.393 0.661s-0.087 0.513-0.036 0.768c0.343 2.123 0.044 4.301-0.857 6.254l-15.349-15.381c1.984-0.913 4.202-1.19 6.349-0.794 0.254 0.033 0.512 0.004 0.753-0.084s0.456-0.234 0.628-0.424c0 0 2.222-2.302 5.571-5.651 2.059-1.654 4.667-2.47 7.302-2.286 1.239 0.006 2.476 0.112 3.698 0.317 0.381 2.27 0.984 8-2.016 11z"></path>
<path d="M21.921 13.201c1.753 0 3.175-1.421 3.175-3.175s-1.421-3.175-3.175-3.175-3.175 1.421-3.175 3.175c0 1.753 1.421 3.175 3.175 3.175z"></path>
<path d="M4.889 22.249c-3.175 1.587-3.175 7.937-3.175 7.937 2.938-0.084 5.751-1.209 7.937-3.175l-4.762-4.762z"></path>
</symbol>
<symbol id="icon-Vector-header" viewBox="0 0 32 32">
<path d="M28.747 32l-10.898-10.895c-2.38 1.57-5.257 2.201-8.075 1.77s-5.376-1.89-7.179-4.099c-1.803-2.208-2.722-5.006-2.58-7.853s1.336-5.54 3.35-7.557c2.017-2.015 4.71-3.209 7.558-3.352s5.647 0.776 7.855 2.579c2.209 1.803 3.67 4.361 4.1 7.179s-0.201 5.696-1.77 8.075l10.893 10.899-3.253 3.253zM11.503 4.601c-1.831-0.001-3.588 0.725-4.883 2.019s-2.024 3.049-2.025 4.88c-0.001 1.831 0.725 3.587 2.019 4.883s3.049 2.024 4.881 2.025c0.907 0.001 1.805-0.177 2.642-0.524s1.599-0.854 2.241-1.495c0.642-0.641 1.151-1.401 1.498-2.239s0.527-1.735 0.527-2.642-0.178-1.804-0.524-2.642c-0.346-0.838-0.854-1.599-1.495-2.241s-1.401-1.151-2.239-1.498-1.735-0.527-2.642-0.527z"></path>
</symbol>
<symbol id="icon-Vector-4" viewBox="0 0 40 32">
<path d="M3.822 4.876c2.763-2.995 6.944-4.513 12.424-4.513h1.969v5.551l-1.583 0.317c-2.698 0.54-4.575 1.601-5.579 3.159-0.524 0.839-0.821 1.8-0.863 2.788h6.055c0.522 0 1.023 0.207 1.392 0.577s0.577 0.87 0.577 1.392v13.785c0 2.172-1.766 3.938-3.938 3.938h-11.815c-0.522 0-1.023-0.207-1.392-0.577s-0.577-0.87-0.577-1.393v-9.846l0.006-5.748c-0.018-0.219-0.392-5.398 3.324-9.431zM35.938 31.87h-11.815c-0.522 0-1.023-0.207-1.392-0.577s-0.577-0.87-0.577-1.393v-9.846l0.006-5.748c-0.018-0.219-0.392-5.398 3.324-9.431 2.763-2.995 6.944-4.513 12.424-4.513h1.969v5.551l-1.583 0.317c-2.698 0.54-4.575 1.601-5.579 3.159-0.524 0.839-0.821 1.8-0.863 2.788h6.055c0.522 0 1.023 0.207 1.392 0.577s0.577 0.87 0.577 1.392v13.785c0 2.172-1.766 3.938-3.938 3.938z"></path>
</symbol>
<symbol id="icon-Vector-3" viewBox="0 0 35 32">
<path d="M34.24 28.598h-30.714v-27.857c0-0.196-0.161-0.357-0.357-0.357h-2.5c-0.196 0-0.357 0.161-0.357 0.357v30.714c0 0.196 0.161 0.357 0.357 0.357h33.571c0.196 0 0.357-0.161 0.357-0.357v-2.5c0-0.196-0.161-0.357-0.357-0.357zM8.249 21.71c0.138 0.138 0.362 0.138 0.504 0l6.174-6.143 5.696 5.732c0.138 0.138 0.366 0.138 0.504 0l12.295-12.29c0.138-0.138 0.138-0.366 0-0.504l-1.768-1.768c-0.067-0.067-0.158-0.104-0.252-0.104s-0.185 0.037-0.252 0.104l-10.268 10.263-5.687-5.723c-0.067-0.066-0.158-0.104-0.252-0.104s-0.185 0.037-0.252 0.104l-8.205 8.156c-0.066 0.067-0.104 0.158-0.104 0.252s0.037 0.185 0.104 0.252l1.763 1.772z"></path>
</symbol>
<symbol id="icon-Vector-1" viewBox="0 0 32 32">
<path d="M16 14.312c2.105 0 4.124 0.836 5.612 2.325s2.325 3.507 2.325 5.612v9.524h-3.175v-9.524c0-1.215-0.464-2.383-1.297-3.267s-1.973-1.416-3.185-1.487l-0.279-0.008c-1.215-0-2.383 0.464-3.267 1.297s-1.416 1.973-1.487 3.185l-0.008 0.279v9.524h-3.175v-9.524c0-2.105 0.836-4.124 2.325-5.612s3.507-2.325 5.612-2.325zM5.683 19.074c0.443 0 0.873 0.052 1.286 0.149-0.271 0.808-0.432 1.649-0.478 2.5l-0.014 0.525v0.137c-0.182-0.065-0.372-0.108-0.565-0.127l-0.229-0.010c-0.592 0-1.163 0.221-1.601 0.618s-0.712 0.945-0.769 1.534l-0.011 0.229v7.143h-3.175v-7.143c0-1.473 0.585-2.886 1.627-3.928s2.455-1.627 3.928-1.627zM26.317 19.074c1.473 0 2.886 0.585 3.928 1.627s1.627 2.455 1.627 3.928v7.143h-3.175v-7.143c-0-0.592-0.221-1.163-0.618-1.601s-0.945-0.712-1.534-0.769l-0.229-0.011c-0.278 0-0.544 0.048-0.794 0.135v-0.135c0-1.057-0.171-2.073-0.49-3.022 0.42-0.102 0.852-0.153 1.284-0.152zM5.683 9.55c1.052 0 2.062 0.418 2.806 1.162s1.162 1.754 1.162 2.806c0 1.052-0.418 2.062-1.162 2.806s-1.754 1.162-2.806 1.162-2.062-0.418-2.806-1.162c-0.744-0.744-1.162-1.754-1.162-2.806s0.418-2.062 1.162-2.806 1.754-1.162 2.806-1.162zM26.317 9.55c1.052 0 2.062 0.418 2.806 1.162s1.162 1.754 1.162 2.806c0 1.052-0.418 2.062-1.162 2.806s-1.754 1.162-2.806 1.162c-1.052 0-2.062-0.418-2.806-1.162s-1.162-1.754-1.162-2.806c0-1.052 0.418-2.062 1.162-2.806s1.754-1.162 2.806-1.162zM5.683 12.725c-0.21 0-0.412 0.084-0.561 0.232s-0.232 0.351-0.232 0.561c0 0.21 0.084 0.412 0.232 0.561s0.351 0.232 0.561 0.232c0.21 0 0.412-0.084 0.561-0.232s0.232-0.351 0.232-0.561c0-0.21-0.084-0.412-0.232-0.561s-0.351-0.232-0.561-0.232zM26.317 12.725c-0.21 0-0.412 0.084-0.561 0.232s-0.232 0.351-0.232 0.561c0 0.21 0.084 0.412 0.232 0.561s0.351 0.232 0.561 0.232c0.21 0 0.412-0.084 0.561-0.232s0.232-0.351 0.232-0.561c0-0.21-0.084-0.412-0.232-0.561s-0.351-0.232-0.561-0.232zM16 0.026c1.684 0 3.299 0.669 4.49 1.86s1.86 2.806 1.86 4.49c0 1.684-0.669 3.299-1.86 4.49s-2.806 1.86-4.49 1.86c-1.684 0-3.299-0.669-4.49-1.86s-1.86-2.806-1.86-4.49c0-1.684 0.669-3.299 1.86-4.49s2.806-1.86 4.49-1.86zM16 3.201c-0.842 0-1.649 0.334-2.245 0.93s-0.93 1.403-0.93 2.245c0 0.842 0.334 1.649 0.93 2.245s1.403 0.93 2.245 0.93c0.842 0 1.649-0.334 2.245-0.93s0.93-1.403 0.93-2.245c0-0.842-0.334-1.649-0.93-2.245s-1.403-0.93-2.245-0.93z"></path>
</symbol>
<symbol id="icon-Group-3" viewBox="0 0 42 32">
<path d="M22.429 0.293l-1.217 2.193-8.705 15.662-2.557-2.531-0.881 1.45-9.031 14.902h41.754l-5.579-12.882-2.76 2.732-11.024-21.525zM22.332 5.95l4.057 7.921-1.033 0.877-3.043-2.58-3.042 2.58-1.241-1.055 4.302-7.742zM22.314 15.646l3.043 2.58 2.272-1.929 4.271 8.342 0.83 1.629 2.579-2.552 2.429 5.611h-32.988c1.909-3.15 3.82-6.301 5.73-9.45l2.654 2.626 0.857-1.54c0.909-1.636 1.819-3.27 2.726-4.905l2.555 2.166 3.043-2.578z"></path>
</symbol>
<symbol id="icon-Group-4" viewBox="0 0 21 32">
<path stroke-linejoin="round" stroke-linecap="round" stroke-miterlimit="4" stroke-width="2.2326" d="M10.578 20.14c5.178 0 9.376-4.197 9.376-9.375s-4.198-9.376-9.376-9.376c-5.178 0-9.375 4.198-9.375 9.376s4.198 9.375 9.376 9.375z"></path>
<path stroke-linejoin="round" stroke-linecap="round" stroke-miterlimit="4" stroke-width="2.2326" d="M5.502 18.653l-1.621 12.202 6.698-4.019 6.697 4.018-1.62-12.215"></path>
</symbol>
<symbol id="icon-Group-1" viewBox="0 0 32 32">
<path d="M16.009 0.98c0.804 0 1.573 0.32 2.141 0.891 0.568 0.569 0.887 1.343 0.887 2.149v9.119h9.084c0.803 0 1.573 0.32 2.141 0.889 0.549 0.551 0.888 1.31 0.888 2.149s-0.339 1.599-0.888 2.149l0-0c-0.547 0.55-1.304 0.89-2.141 0.891h-9.084v9.119c0 0.807-0.319 1.579-0.887 2.149-0.547 0.549-1.304 0.889-2.141 0.889s-1.593-0.34-2.141-0.889l-0-0c-0.549-0.551-0.888-1.31-0.888-2.149v0-9.119h-9.083c-0.804 0-1.573-0.32-2.141-0.891-0.549-0.551-0.888-1.31-0.888-2.149s0.339-1.599 0.888-2.149l-0 0c0.547-0.549 1.304-0.889 2.141-0.889 0 0 0 0 0.001 0h9.083v-9.12c0-0.805 0.32-1.579 0.888-2.148 0.547-0.55 1.304-0.89 2.14-0.891h0z"></path>
</symbol>
<symbol id="icon-Group-2" viewBox="0 0 32 32">
<path d="M16.056 16.131c2.1 0 4.114-0.834 5.599-2.319s2.319-3.499 2.319-5.599-0.834-4.114-2.319-5.599c-1.485-1.485-3.499-2.319-5.599-2.319s-4.114 0.834-5.599 2.319c-1.485 1.485-2.319 3.499-2.319 5.599s0.834 4.114 2.319 5.599c1.485 1.485 3.499 2.319 5.599 2.319zM21.335 8.212c0 1.4-0.556 2.743-1.546 3.733s-2.333 1.546-3.733 1.546c-1.4 0-2.743-0.556-3.733-1.546s-1.546-2.333-1.546-3.733c0-1.4 0.556-2.743 1.546-3.733s2.333-1.546 3.733-1.546c1.4 0 2.743 0.556 3.733 1.546s1.546 2.333 1.546 3.733zM31.893 29.329c0 2.64-2.64 2.64-2.64 2.64h-26.396c0 0-2.64 0-2.64-2.64s2.64-10.558 15.838-10.558 15.838 7.919 15.838 10.558zM29.254 29.319c-0.003-0.649-0.407-2.603-2.196-4.392-1.721-1.721-4.96-3.516-11.002-3.516-6.045 0-9.281 1.795-11.002 3.516-1.79 1.79-2.191 3.743-2.196 4.392h26.396z"></path>
</symbol>
</defs>
</svg>
